<svg width="18" height="15" viewBox="0 0 18 15" fill="none" xmlns="http://www.w3.org/2000/svg">
<path d="M4.21741 15H13.7543C14.6959 15 15.2269 14.4832 15.2269 13.5557V6.07294L16.3243 6.99335C16.4376 7.08539 16.5509 7.16327 16.6996 7.16327C16.9615 7.16327 17.1669 7.00751 17.1669 6.75262C17.1669 6.5827 17.1102 6.4765 16.9828 6.3703L15.2269 4.89056V1.41772C15.2269 1.16284 15.057 1 14.8021 1H14.1366C13.8888 1 13.7118 1.16284 13.7118 1.41772V3.61615L9.77527 0.302673C9.3009 -0.100891 8.72742 -0.100891 8.24597 0.302673L1.01721 6.3703C0.889771 6.4765 0.83313 6.60394 0.83313 6.73846C0.83313 6.95795 1.01013 7.16327 1.30042 7.16327C1.4491 7.16327 1.56946 7.08539 1.67566 6.99335L2.75183 6.09418V13.5557C2.75183 14.4832 3.28284 15 4.21741 15ZM11.0001 8.5C11.0001 8.20264 10.809 8.01147 10.5116 8.01147H7.4884C7.19104 8.01147 6.9928 8.20264 6.9928 8.5V14.1292H4.40149C3.88464 14.1292 3.62976 13.8672 3.62976 13.3433V5.35785L8.72742 1.08148C8.90442 0.92572 9.09558 0.91156 9.28674 1.08148L14.349 5.33661V13.3433C14.349 13.8672 14.0941 14.1292 13.5702 14.1292H11.0001V8.5Z" fill="black"/>
</svg>
