<?xml version="1.0" encoding="UTF-8" standalone="no"?>
<svg width="270px" height="60px" viewBox="0 0 270 60" version="1.1" xmlns="http://www.w3.org/2000/svg" xmlns:xlink="http://www.w3.org/1999/xlink">
    <!-- Generator: Sketch 42 (36781) - http://www.bohemiancoding.com/sketch -->
    <title>Header / logo</title>
    <desc>Created with Sketch.</desc>
    <defs></defs>
    <g id="Symbols" stroke="none" stroke-width="1" fill="none" fill-rule="evenodd">
        <g id="Header-/-logo">
            <rect id="Rectangle-2" fill="#FFFFFF" x="0" y="0" width="60" height="60"></rect>
            <path d="M47,19.8148721 L30,29.6297441 L13,19.8148721 L30,10 L47,19.8148721 Z M13,23.5936567 L26.728678,31.5191365 L13,39.4446162 L13,23.5936567 Z M30,33.4085288 L30,49.2594883 L16.2722281,41.3340085 L30,33.4085288 Z M43.7277719,25.4821429 L47,23.5936567 L47,39.4446162 L33.2722281,47.3710021 L33.2722281,43.5931237 L43.7277719,37.5561301 L43.7277719,25.4821429 Z" id="Combined-Shape" fill="#000000"></path>
            <path d="M89,37 L89,28 L83,28 L83,37 L89,37 Z M80,40 L80,18.75 L83,19.5 L83,25 L92,25 L92,40 L80,40 Z M95,40 L95,18.75 L98,19.5 L98,40 L95,40 Z M110,37 L110,28 L104,28 L104,37 L110,37 Z M101,40 L101,25 L113,25 L113,40 L101,40 Z M125,37 L125,28 L119,28 L119,37 L125,37 Z M116.75,46 L117.5,43 L125,43 L125,40 L116,40 L116,25 L128,25 L128,46 L116.75,46 Z M146,31 L146,28 L142,28 L142,31 L146,31 Z M138,40 L138,24 L150,24 L150,35 L142,35 L142,36 L150.25,36 L149.25,40 L138,40 Z M152.5,40 L156.5,32 L152.5,24 L157,24 L159,28 L161,24 L165.5,24 L161.5,32 L165.5,40 L161.5,40 L159,35 L156.5,40 L152.5,40 Z M169.75,40 L169,37 L169,28 L168,28 L168,24 L169,24 L169,21 L173,21 L173,24 L176,24 L176,28 L173,28 L173,36 L176,36 L176,40 L169.75,40 Z M187,31 L187,28 L183,28 L183,31 L187,31 Z M179,40 L179,24 L191,24 L191,35 L183,35 L183,36 L191.25,36 L190.25,40 L179,40 Z M194,40 L194,24 L198,24 L198,24.75 L201,24 L206,24 L206,40 L202,40 L202,28 L201,28 L198,28.75 L198,40 L194,40 Z M217,36 L217,28 L213,28 L213,36 L217,36 Z M209,40 L209,24 L217,24 L217,17.75 L221,18.75 L221,40 L209,40 Z M232,31 L232,28 L228,28 L228,31 L232,31 Z M224,40 L224,24 L236,24 L236,35 L228,35 L228,36 L236.25,36 L235.25,40 L224,40 Z M247,36 L247,28 L243,28 L243,36 L247,36 Z M239,40 L239,24 L247,24 L247,17.75 L251,18.75 L251,40 L239,40 Z" id="blog-extended" fill="#FFFFFF"></path>
        </g>
    </g>
</svg>